# xmcd
#
# Track frame offsets:
#	150
#	18000
#	33150
#	54900
#	69900
#	90450
#	107700
#	124800
#	138900
#	162450
#	179775
#	195075
#	211425
#	226725
#	248925
#	263325
#	285525
#
# Disc length: 3979 seconds
#
# Revision: 0
# Processed by: cddbd v1.5.2PL0 Copyright (c) Steve Scherf et al.
# Submitted via: dBpowerAMP V4.0
#
DISCID=d90f8911
DTITLE=Richard Hayman - Melodies of Love
DYEAR=1900
DGENRE=Blues
TTITLE0=My Own True Love
TTITLE1=This Is My Song
TTITLE2=I Left My Heart In San Francisco
TTITLE3=The Night Was Made For Love
TTITLE4=Our Waltz
TTITLE5=People
TTITLE6=The Very Thought Of You
TTITLE7=Melody Of Love
TTITLE8=Birthday Serenade
TTITLE9=Be My Love
TTITLE10=Always (I'll be Loving You)
TTITLE11=The More I See You
TTITLE12=Beatiful Love
TTITLE13=The Song is You
TTITLE14=Deep in My Heart
TTITLE15=Music Form Across the Way
TTITLE16=Something Money Can't Buy
EXTD=
EXTT0=
EXTT1=
EXTT2=
EXTT3=
EXTT4=
EXTT5=
EXTT6=
EXTT7=
EXTT8=
EXTT9=
EXTT10=
EXTT11=
EXTT12=
EXTT13=
EXTT14=
EXTT15=
EXTT16=
PLAYORDER=
